<svg xmlns="http://www.w3.org/2000/svg" xmlns:xlink="http://www.w3.org/1999/xlink" id="body_156" preserveAspectRatio="xMinYMin meet" viewBox="0 0 691 984"><defs><clipPath id="1"><path d="M0 738L0 -0.6796265L0 -0.6796265L518.4567 -0.6796265L518.4567 -0.6796265L518.4567 738L518.4567 738L0 738z" /></clipPath><clipPath id="2"><path d="M378.456 738.0009L518.456 738.0009L518.456 738.0009L518.456 729.9611L518.456 729.9611L378.456 729.9611z" /></clipPath></defs><g transform="matrix(1.333333 0 0 1.333333 0 0)"><g><g clip-path="url(#1)"><g transform="matrix(0.2422692 0 0 0.2422693 0 -0.6790161)"><g transform="matrix(1 0 0 1 0 0)"><image x="0" y="0" xlink:href="img_316.png" width="2140" height="3049" /></g></g><g transform="matrix(0.2422689 0 0 0.2422686 132.279 391.556)"><g transform="matrix(1 0 0 1 0 0)"><image x="0" y="0" xlink:href="img_317.png" width="993" height="700" /></g></g><g clip-path="url(#2)"></g></g></g></g></svg>