<svg xmlns="http://www.w3.org/2000/svg" xmlns:xlink="http://www.w3.org/1999/xlink" id="body_103" preserveAspectRatio="xMinYMin meet" viewBox="0 0 691 984"><defs><clipPath id="1"><path d="M0 738L0 -0.5767212L0 -0.5767212L518.4567 -0.5767212L518.4567 -0.5767212L518.4567 738L518.4567 738L0 738z" /></clipPath><clipPath id="2"><path d="M378.456 738.0009L518.456 738.0009L518.456 738.0009L518.456 729.9611L518.456 729.9611L378.456 729.9611z" /></clipPath></defs><g transform="matrix(1.333333 0 0 1.333333 0 0)"><g><g clip-path="url(#1)"><g transform="matrix(0.242156 0 0 0.2421561 0 -0.5759888)"><g transform="matrix(1 0 0 1 0 0)"><image x="0" y="0" xlink:href="img_205.png" width="2141" height="3050" /></g></g><g transform="matrix(0.2421559 0 0 0.2421563 87.902 79.09302)"><g transform="matrix(1 0 0 1 0 0)"><image x="0" y="0" xlink:href="img_206.png" width="1450" height="947" /></g></g><g transform="matrix(0.2421561 0 0 0.2421558 90.324 410.121)"><g transform="matrix(1 0 0 1 0 0)"><image x="0" y="0" xlink:href="img_207.png" width="1416" height="950" /></g></g><g clip-path="url(#2)"></g></g></g></g></svg>