<svg xmlns="http://www.w3.org/2000/svg" xmlns:xlink="http://www.w3.org/1999/xlink" id="body_104" preserveAspectRatio="xMinYMin meet" viewBox="0 0 691 989"><defs><clipPath id="1"><path d="M0 742L0 -0.2244263L0 -0.2244263L518.4567 -0.2244263L518.4567 -0.2244263L518.4567 742L518.4567 742L0 742z" /></clipPath><clipPath id="2"><path d="M378.456 742.0009L518.456 742.0009L518.456 742.0009L518.456 733.9611L518.456 733.9611L378.456 733.9611z" /></clipPath></defs><g transform="matrix(1.333333 0 0 1.333333 0 0)"><g><g clip-path="url(#1)"><g transform="matrix(0.2445547 0 0 0.2445549 0 -0.223999)"><g transform="matrix(1 0 0 1 0 0)"><image x="0" y="0" xlink:href="img_209.png" width="2120" height="3035" /></g></g><g transform="matrix(0.2445542 0 0 0.2445542 123.744 122.788)"><g transform="matrix(1 0 0 1 0 0)"><image x="0" y="0" xlink:href="img_210.png" width="1097" height="646" /></g></g><g clip-path="url(#2)"></g></g></g></g></svg>