<svg xmlns="http://www.w3.org/2000/svg" xmlns:xlink="http://www.w3.org/1999/xlink" id="body_117" preserveAspectRatio="xMinYMin meet" viewBox="0 0 691 979"><defs><clipPath id="1"><path d="M0 734L0 -0.8601074L0 -0.8601074L518.4567 -0.8601074L518.4567 -0.8601074L518.4567 734L518.4567 734L0 734z" /></clipPath><clipPath id="2"><path d="M378.456 734.0009L518.456 734.0009L518.456 734.0009L518.456 725.9611L518.456 725.9611L378.456 725.9611z" /></clipPath></defs><g transform="matrix(1.333333 0 0 1.333333 0 0)"><g><g clip-path="url(#1)"><g transform="matrix(0.2399148 0 0 0.2399151 0 -0.8599854)"><g transform="matrix(1 0 0 1 0 0)"><image x="0" y="0" xlink:href="img_236.png" width="2161" height="3063" /></g></g><g transform="matrix(0.2399142 0 0 0.239912 65.496 494.806)"><g transform="matrix(1 0 0 1 0 0)"><image x="0" y="0" xlink:href="img_237.png" width="513" height="250" /></g></g><g clip-path="url(#2)"></g></g></g></g></svg>